<svg width="1200" height="720" viewBox="0 0 1200 720" fill="none" xmlns="http://www.w3.org/2000/svg">
  <rect width="1200" height="720" rx="48" fill="#151006"/>
  <rect x="56" y="56" width="1088" height="608" rx="36" fill="url(#bg)"/>
  <circle cx="1000" cy="170" r="132" fill="#FBBF24" fill-opacity="0.12"/>
  <circle cx="220" cy="586" r="174" fill="#F59E0B" fill-opacity="0.08"/>
  <rect x="120" y="140" width="446" height="400" rx="32" fill="#1D1608" stroke="#FCD34D" stroke-opacity="0.2"/>
  <rect x="166" y="188" width="354" height="34" rx="17" fill="#FDE68A" fill-opacity="0.16"/>
  <rect x="166" y="248" width="134" height="134" rx="24" fill="#FBBF24" fill-opacity="0.14"/>
  <rect x="322" y="248" width="198" height="24" rx="12" fill="#FEF3C7" fill-opacity="0.16"/>
  <rect x="322" y="292" width="166" height="24" rx="12" fill="#FEF3C7" fill-opacity="0.1"/>
  <rect x="322" y="336" width="114" height="24" rx="12" fill="#FEF3C7" fill-opacity="0.1"/>
  <rect x="642" y="148" width="384" height="392" rx="34" fill="#201807" stroke="#FCD34D" stroke-opacity="0.24"/>
  <path d="M718 458L772 400L836 434L914 322L962 350" stroke="#FBBF24" stroke-width="10" stroke-linecap="round" stroke-linejoin="round"/>
  <circle cx="718" cy="458" r="10" fill="#FBBF24"/>
  <circle cx="772" cy="400" r="10" fill="#FBBF24"/>
  <circle cx="836" cy="434" r="10" fill="#FBBF24"/>
  <circle cx="914" cy="322" r="10" fill="#FBBF24"/>
  <circle cx="962" cy="350" r="10" fill="#FBBF24"/>
  <text x="120" y="608" fill="#FFFBEB" fill-opacity="0.9" font-family="Arial, sans-serif" font-size="42" font-weight="700">DSA CRACKER Platform</text>
  <text x="120" y="648" fill="#FCD34D" fill-opacity="0.8" font-family="Arial, sans-serif" font-size="26">Coding Progress &amp; Practice Hub</text>
  <defs>
    <linearGradient id="bg" x1="84" y1="84" x2="1088" y2="628" gradientUnits="userSpaceOnUse">
      <stop stop-color="#211705"/>
      <stop offset="1" stop-color="#130F05"/>
    </linearGradient>
  </defs>
</svg>
