<svg width="1200" height="720" viewBox="0 0 1200 720" fill="none" xmlns="http://www.w3.org/2000/svg">
  <rect width="1200" height="720" rx="48" fill="#140B0B"/>
  <rect x="56" y="56" width="1088" height="608" rx="36" fill="url(#bg)"/>
  <circle cx="994" cy="182" r="136" fill="#FB7185" fill-opacity="0.14"/>
  <circle cx="250" cy="580" r="168" fill="#F59E0B" fill-opacity="0.11"/>
  <rect x="116" y="126" width="492" height="432" rx="30" fill="#171111" stroke="#FDBA74" stroke-opacity="0.22"/>
  <rect x="156" y="166" width="412" height="352" rx="24" fill="#0C0A0A"/>
  <rect x="218" y="222" width="168" height="106" rx="18" stroke="#FB7185" stroke-width="6" stroke-dasharray="12 10"/>
  <rect x="344" y="312" width="142" height="92" rx="18" stroke="#F59E0B" stroke-width="6" stroke-dasharray="12 10"/>
  <rect x="672" y="154" width="360" height="118" rx="26" fill="#241417" stroke="#FB7185" stroke-opacity="0.28"/>
  <rect x="706" y="194" width="188" height="20" rx="10" fill="#FFE4E6" fill-opacity="0.16"/>
  <rect x="706" y="232" width="262" height="16" rx="8" fill="#FFE4E6" fill-opacity="0.1"/>
  <rect x="672" y="316" width="360" height="182" rx="26" fill="#241714" stroke="#FDBA74" stroke-opacity="0.28"/>
  <path d="M736 442L800 378L858 410L930 336" stroke="#FDBA74" stroke-width="10" stroke-linecap="round" stroke-linejoin="round"/>
  <circle cx="736" cy="442" r="10" fill="#FDBA74"/>
  <circle cx="800" cy="378" r="10" fill="#FDBA74"/>
  <circle cx="858" cy="410" r="10" fill="#FDBA74"/>
  <circle cx="930" cy="336" r="10" fill="#FDBA74"/>
  <text x="116" y="610" fill="#FFF1F2" fill-opacity="0.9" font-family="Arial, sans-serif" font-size="42" font-weight="700">HazardVision</text>
  <text x="116" y="650" fill="#FDBA74" fill-opacity="0.8" font-family="Arial, sans-serif" font-size="26">Real-Time Threat Detection Platform</text>
  <defs>
    <linearGradient id="bg" x1="84" y1="80" x2="1086" y2="636" gradientUnits="userSpaceOnUse">
      <stop stop-color="#221213"/>
      <stop offset="1" stop-color="#140C0C"/>
    </linearGradient>
  </defs>
</svg>
